<svg width="655" height="655" xmlns="http://www.w3.org/2000/svg" xmlns:xlink="http://www.w3.org/1999/xlink" xml:space="preserve" overflow="hidden"><g transform="translate(-1380 -12)"><path d="M321.628-30.2082C321.628-34.3544 318.666-37.316 315.705-37.316 307.412-37.316 293.789-30.8005 290.235-30.8005 273.65-30.8005 267.727-42.0545 267.727-71.6703L267.727-190.726C267.727-266.543 225.673-284.904 157.556-284.904 91.2168-284.904 42.0545-253.512 42.0545-210.865 42.0545-188.357 55.6778-174.141 76.4089-174.141 94.7707-174.141 108.394-186.58 108.394-204.349 108.394-215.011 95.363-233.373 95.363-236.334 95.363-248.773 119.648-259.435 148.079-259.435 187.764-259.435 212.049-246.404 212.049-194.28L212.049-171.18C74.0396-147.487 26.0619-118.463 26.0619-60.4163 26.0619-18.3618 59.824 8.88475 111.948 8.88475 152.818 8.88475 189.541-7.70012 215.011-37.9083 224.488-7.70012 239.296 4.14622 267.135 4.14622 293.789 4.14622 321.628-13.031 321.628-30.2082ZM212.049-118.463C212.049-82.9244 210.272-74.6319 200.203-59.2317 185.395-37.316 158.149-22.508 132.679-22.508 106.025-22.508 85.8859-42.0545 85.8859-68.7087 85.8859-110.763 109.579-128.533 212.049-145.71Z" fill="#FFD700" transform="matrix(1 0 0 1.00062 1543.06 474.609)"/><path d="M46.9553 359.779C46.9553 187.012 187.012 46.9553 359.779 46.9553 532.547 46.9553 672.603 187.012 672.603 359.779 672.603 532.547 532.547 672.603 359.779 672.603 187.012 672.603 46.9553 532.547 46.9553 359.779Z" stroke="#FFD700" stroke-width="27.712" stroke-miterlimit="8" fill="none" fill-rule="evenodd" transform="matrix(1 0 0 1.00062 1347.97 -20.6305)"/></g></svg>