<?xml version="1.0" encoding="UTF-8" standalone="no"?>
<svg
   width="2255.1367"
   height="467.90472"
   xml:space="preserve"
   overflow="hidden"
   version="1.1"
   id="svg10"
   xmlns="http://www.w3.org/2000/svg"
   xmlns:svg="http://www.w3.org/2000/svg"><defs
     id="defs5"><clipPath
       id="clip0"><rect
         x="817"
         y="1247"
         width="2507"
         height="771"
         id="rect1" /></clipPath><clipPath
       id="clip1"><rect
         x="817"
         y="1343"
         width="514"
         height="515"
         id="rect2" /></clipPath><clipPath
       id="clip2"><rect
         x="817"
         y="1343"
         width="514"
         height="515"
         id="rect3" /></clipPath><clipPath
       id="clip3"><rect
         x="817"
         y="1343"
         width="514"
         height="515"
         id="rect4" /></clipPath><clipPath
       id="clip4"><rect
         x="817"
         y="1343"
         width="514"
         height="515"
         id="rect5" /></clipPath></defs><g
     clip-path="url(#clip0)"
     transform="translate(-840.6091,-1367.1387)"
     id="g10"><path
       d="m 199.281,-18.717 c 0,-2.569 -1.835,-4.404 -3.67,-4.404 -5.138,0 -13.579,4.037 -15.781,4.037 -10.276,0 -13.946,-6.973 -13.946,-25.323 v -73.767 c 0,-46.976 -26.057,-58.353 -68.262,-58.353 -41.104,0 -71.565,19.451 -71.565,45.875 0,13.946 8.441,22.754 21.286,22.754 11.377,0 19.818,-7.707 19.818,-18.717 0,-6.606 -8.074,-17.983 -8.074,-19.818 0,-7.707 15.047,-14.313 32.663,-14.313 24.589,0 39.636,8.074 39.636,40.37 v 14.313 C 45.875,-91.383 16.148,-73.4 16.148,-37.434 c 0,26.057 20.919,42.939 53.215,42.939 25.323,0 48.077,-10.276 63.858,-28.993 5.872,18.717 15.047,26.057 32.296,26.057 16.515,0 33.764,-10.643 33.764,-21.286 z M 131.386,-73.4 c 0,22.02 -1.101,27.158 -7.34,36.7 -9.175,13.579 -26.057,22.754 -41.838,22.754 -16.515,0 -28.993,-12.111 -28.993,-28.626 0,-26.057 14.68,-37.067 78.171,-47.71 z m 269.01091,-12.845 c 0,-50.646 -31.562,-90.282 -71.932,-90.282 -22.754,0 -37.801,9.542 -50.646,31.562 v -26.057 l -63.491,4.037 v 15.781 h 13.212 c 13.579,0 15.781,2.569 15.781,18.35 V 43.673 c 0,14.68 -0.367,17.249 -23.855,17.249 h -5.138 v 13.212 h 95.42 V 60.922 h -5.138 c -23.855,0 -26.791,-2.569 -26.791,-17.249 v -67.895 c 12.111,21.286 26.057,29.727 48.444,29.727 42.572,0 74.134,-39.269 74.134,-91.75 z m -38.535,-2.202 c 0,47.343 -15.047,74.134 -41.104,74.134 -26.057,0 -43.306,-27.158 -43.306,-69.363 0,-45.508 16.515,-73.033 44.407,-73.033 25.323,0 40.003,25.323 40.003,68.262 z m 249.19278,2.202 c 0,-50.646 -31.562,-90.282 -71.932,-90.282 -22.754,0 -37.801,9.542 -50.646,31.562 v -26.057 l -63.491,4.037 v 15.781 h 13.212 c 13.579,0 15.781,2.569 15.781,18.35 V 43.673 c 0,14.68 -0.367,17.249 -23.855,17.249 h -5.138 v 13.212 h 95.42 V 60.922 h -5.138 c -23.855,0 -26.791,-2.569 -26.791,-17.249 v -67.895 c 12.111,21.286 26.057,29.727 48.444,29.727 42.572,0 74.134,-39.269 74.134,-91.75 z m -38.535,-2.202 c 0,47.343 -15.047,74.134 -41.104,74.134 -26.057,0 -43.306,-27.158 -43.306,-69.363 0,-45.508 16.515,-73.033 44.407,-73.033 25.323,0 40.003,25.323 40.003,68.262 z m 223.50274,41.838 -12.845,-6.973 c -15.047,28.259 -30.461,39.269 -55.05,39.269 -30.461,0 -51.013,-22.02 -51.013,-68.262 h 118.908 c 0,-55.05 -30.461,-93.952 -75.602,-93.952 -46.976,0 -82.208,40.737 -82.208,95.787 0,51.38 33.397,86.245 82.942,86.245 34.865,0 59.821,-17.249 74.868,-52.114 z m -39.269,-65.326 c 0,10.643 -3.303,13.579 -15.047,13.579 h -64.225 c 0,-39.269 19.818,-62.39 42.205,-62.39 22.387,0 37.067,19.451 37.067,48.811 z m 251.39497,93.218 c 0,-2.569 -1.835,-4.404 -3.67,-4.404 -5.13797,0 -13.57897,4.037 -15.78097,4.037 -10.276,0 -13.946,-6.973 -13.946,-25.323 v -73.767 c 0,-46.976 -26.057,-58.353 -68.262,-58.353 -41.104,0 -71.565,19.451 -71.565,45.875 0,13.946 8.441,22.754 21.286,22.754 11.377,0 19.818,-7.707 19.818,-18.717 0,-6.606 -8.074,-17.983 -8.074,-19.818 0,-7.707 15.047,-14.313 32.663,-14.313 24.589,0 39.636,8.074 39.636,40.37 v 14.313 c -85.511,14.68 -115.238,32.663 -115.238,68.629 0,26.057 20.919,42.939 53.215,42.939 25.323,0 48.077,-10.276 63.858,-28.993 5.872,18.717 15.047,26.057 32.296,26.057 16.515,0 33.76397,-10.643 33.76397,-21.286 z M 940.25343,-73.4 c 0,22.02 -1.101,27.158 -7.34,36.7 -9.175,13.579 -26.057,22.754 -41.838,22.754 -16.515,0 -28.993,-12.111 -28.993,-28.626 0,-26.057 14.68,-37.067 78.171,-47.71 z M 1118.2484,0 v -13.212 h -6.239 c -23.855,0 -24.222,-2.569 -24.222,-17.249 v -240.018 l -67.895,4.037 v 15.781 h 17.983 c 13.212,0 15.414,2.569 15.414,18.35 v 201.85 c 0,14.68 -0.367,17.249 -23.855,17.249 h -6.239 V 0 Z m 181.2981,-85.511 c 0,-50.279 -35.232,-91.016 -78.538,-91.016 -44.774,0 -80.006,40.003 -80.006,91.383 0,50.279 35.232,90.649 79.272,90.649 44.04,0 79.272,-40.37 79.272,-91.016 z m -38.535,0 c 0,48.811 -14.313,75.235 -40.737,75.235 -26.424,0 -40.737,-26.424 -40.737,-74.868 0,-49.912 13.946,-75.602 41.471,-75.602 25.69,0 40.003,26.791 40.003,75.235 z m 209.924,-150.47 c 0,-21.286 -18.35,-34.498 -48.077,-34.498 -43.306,0 -71.565,25.69 -71.565,88.08 v 11.377 h -32.296 v 15.781 h 32.296 v 124.78 c 0,14.68 -0.367,17.249 -23.855,17.249 h -5.138 V 0 h 97.989 v -13.212 h -6.606 c -23.855,0 -27.892,-2.569 -27.892,-17.249 v -124.78 h 40.37 v -15.781 h -40.37 v -20.919 c 0,-46.242 13.212,-63.858 37.434,-63.858 7.707,0 12.478,2.202 12.478,6.239 0,1.101 -5.505,9.909 -5.505,16.515 0,11.01 8.808,19.451 20.185,19.451 12.111,0 20.552,-9.175 20.552,-22.387 z m 157.0763,217.264 c 0,-2.569 -1.835,-4.404 -3.67,-4.404 -5.138,0 -13.579,4.037 -15.781,4.037 -10.276,0 -13.946,-6.973 -13.946,-25.323 v -73.767 c 0,-46.976 -26.057,-58.353 -68.262,-58.353 -41.104,0 -71.565,19.451 -71.565,45.875 0,13.946 8.441,22.754 21.286,22.754 11.377,0 19.818,-7.707 19.818,-18.717 0,-6.606 -8.074,-17.983 -8.074,-19.818 0,-7.707 15.047,-14.313 32.663,-14.313 24.589,0 39.636,8.074 39.636,40.37 v 14.313 c -85.511,14.68 -115.238,32.663 -115.238,68.629 0,26.057 20.919,42.939 53.215,42.939 25.323,0 48.077,-10.276 63.858,-28.993 5.872,18.717 15.047,26.057 32.296,26.057 16.515,0 33.764,-10.643 33.764,-21.286 z m -67.895,-54.683 c 0,22.02 -1.101,27.158 -7.34,36.7 -9.175,13.579 -26.057,22.754 -41.838,22.754 -16.515,0 -28.993,-12.111 -28.993,-28.626 0,-26.057 14.68,-37.067 78.171,-47.71 z M 1738.8457,0 v -13.212 h -4.404 c -23.855,0 -26.057,-2.569 -26.057,-17.249 v -140.561 l -68.996,4.037 v 15.781 h 18.717 c 13.579,0 15.781,2.936 15.781,18.35 v 102.393 c 0,14.68 -2.202,17.249 -25.69,17.249 h -4.404 V 0 Z m -29.36,-223.87 c 0,-9.909 -8.441,-18.35 -18.35,-18.35 -9.909,0 -18.35,8.441 -18.35,18.35 0,9.909 8.441,18.35 17.983,18.35 10.276,0 18.717,-8.074 18.717,-18.35 z"
       id="text5"
       style="font-size:367px;font-family:TeXGyreSchola, TeXGyreSchola_MSFontService, sans-serif;fill:#ffd700"
       transform="translate(1356.9,1697)"
       aria-label="appealofai" /><g
       clip-path="url(#clip1)"
       id="g9"><g
         clip-path="url(#clip2)"
         id="g8"><g
           clip-path="url(#clip3)"
           id="g7"><g
             clip-path="url(#clip4)"
             id="g6"><path
               d="m 1741.944,-163.608 c 0,-22.456 -16.04,-38.496 -32.08,-38.496 -44.912,0 -118.696,35.288 -137.944,35.288 -89.824,0 -121.904,-60.952 -121.904,-221.352 v -644.808 c 0,-410.624 -227.768,-510.072 -596.688,-510.072 -359.296,0 -625.56,170.024 -625.56,401 0,121.904 73.784,198.896 186.064,198.896 99.448,0 173.232,-67.368 173.232,-163.608 0,-57.744 -70.576,-157.192 -70.576,-173.232 0,-67.368 131.528,-125.112 285.512,-125.112 214.936,0 346.464,70.576 346.464,352.88 v 125.112 C 401,-798.792 141.152,-641.6 141.152,-327.216 c 0,227.768 182.856,375.336 465.16,375.336 221.352,0 420.248,-89.824 558.192,-253.432 51.328,163.608 131.528,227.768 282.304,227.768 144.36,0 295.136,-93.032 295.136,-186.064 z M 1148.464,-641.6 c 0,192.48 -9.624,237.392 -64.16,320.8 -80.2,118.696 -227.768,198.896 -365.712,198.896 -144.36,0 -253.432,-105.864 -253.432,-250.224 0,-227.768 128.32,-324.008 683.304,-417.04 z"
               id="text6"
               style="font-size:3208px;font-family:TeXGyreSchola, TeXGyreSchola_MSFontService, sans-serif;fill:#ffd700"
               transform="matrix(0.131956,0,0,0.132209,956.439,1698)"
               aria-label="a" /><path
               d="m 33.5166,257.114 c 0,-123.49 100.1074,-223.5974 223.5974,-223.5974 123.491,0 223.599,100.1074 223.599,223.5974 0,123.491 -100.108,223.599 -223.599,223.599 -123.49,0 -223.5974,-100.108 -223.5974,-223.599 z"
               stroke="#ffd700"
               stroke-width="19.807"
               stroke-miterlimit="8"
               fill="none"
               fill-rule="evenodd"
               transform="matrix(1,0,0,1.00193,816.996,1343.48)"
               id="path6" /></g></g></g></g></g></svg>
